<?xml version="1.0" encoding="UTF-8"?>
<svg version="1.1" xmlns="http://www.w3.org/2000/svg" width="167" height="163">
<path d="M0 0 C43.23 0 86.46 0 131 0 C131 1.32 131 2.64 131 4 C130.34 4 129.68 4 129 4 C129.0292305 5.37296486 129.0292305 5.37296486 129.05905151 6.77366638 C129.1918908 18.15499253 128.36215696 29.33292417 127.3203125 40.66015625 C127.14511861 42.6223759 126.97056147 44.58465249 126.79660034 46.54698181 C126.33996384 51.67927276 125.87498871 56.81077331 125.40808105 61.94213867 C124.94030602 67.09835491 124.48016361 72.255251 124.01953125 77.41210938 C123.32156872 85.21793224 122.61980509 93.02340194 121.91503906 100.82861328 C120.91741335 111.88351263 119.94683962 122.94062874 119 134 C112.52216483 135.99704678 106.0394865 137.97628572 99.54833984 139.9296875 C97.12808281 140.65972788 94.70918822 141.39429668 92.29150391 142.1328125 C88.55305976 143.27104171 84.8086798 144.38752811 81.0625 145.5 C79.88526367 145.86222656 78.70802734 146.22445312 77.49511719 146.59765625 C71.38310692 148.38962247 66.27748785 149.68653212 60 148 C59.04971924 147.75266113 58.09943848 147.50532227 57.12036133 147.25048828 C53.6911267 146.31526587 50.28324185 145.3214448 46.875 144.3125 C34.6233601 140.7219905 22.32392276 137.33303265 10 134 C4.18118563 65.34382511 4.18118563 65.34382511 1.625 31 C1.53996216 29.87019714 1.45492432 28.74039429 1.36730957 27.57635498 C1.12941311 24.40531527 0.89584356 21.23399191 0.6640625 18.0625 C0.59561127 17.1511026 0.52716003 16.2397052 0.45663452 15.3006897 C0.39569611 14.44993866 0.33475769 13.59918762 0.27197266 12.72265625 C0.21901031 11.99828369 0.16604797 11.27391113 0.11148071 10.52758789 C-0.04315273 7.02160362 0 3.50939271 0 0 Z M24 29 C24.06550982 36.7588388 24.06550982 36.7588388 26 44 C44.315 44.495 44.315 44.495 63 45 C59.7 46.32 56.4 47.64 53 49 C53 49.66 53 50.32 53 51 C52.46375 51.13535156 51.9275 51.27070312 51.375 51.41015625 C42.87983805 53.74353132 35.00375896 57.37546896 27 61 C27.14063135 63.29199177 27.28765943 65.58359186 27.4375 67.875 C27.51871094 69.15117188 27.59992187 70.42734375 27.68359375 71.7421875 C27.79206027 74.88300152 27.79206027 74.88300152 29 77 C47.48 77 65.96 77 85 77 C84.34 82.61 83.68 88.22 83 94 C83 95.65 83 97.3 83 99 C69.57939583 101.11110627 60.26131115 101.12907342 47 98 C46.34 93.71 45.68 89.42 45 85 C40.05 85 35.1 85 30 85 C29.92616568 91.2020826 29.93444756 97.37000096 30.3125 103.5625 C30.37050781 104.53316406 30.42851563 105.50382812 30.48828125 106.50390625 C31.09988447 109.48722271 31.63561413 110.12949843 34 112 C37.95886595 113.51000624 42.03583208 114.58387832 46.12207031 115.69921875 C48.10296179 116.24393976 50.07445932 116.81607749 52.046875 117.390625 C62.56086896 120.30285143 69.20417096 120.26008997 79.4375 116.625 C84.63968778 114.80859182 89.84905487 113.10378989 95.14453125 111.578125 C97.06609464 111.03399419 97.06609464 111.03399419 99 110 C102.29619332 94.22863057 102.0651405 76.95938719 103 61 C92.11 60.67 81.22 60.34 70 60 C72.68125 58.88625 75.3625 57.7725 78.125 56.625 C79.37434326 56.10413818 79.37434326 56.10413818 80.64892578 55.57275391 C84.72348911 53.88790107 88.79220883 52.3308988 93 51 C93 50.34 93 49.68 93 49 C93.60328125 48.80664062 94.2065625 48.61328125 94.828125 48.4140625 C95.62734375 48.15367188 96.4265625 47.89328125 97.25 47.625 C98.03890625 47.36976562 98.8278125 47.11453125 99.640625 46.8515625 C102.32716625 45.93391927 102.32716625 45.93391927 106 44 C106 39.05 106 34.1 106 29 C78.94 29 51.88 29 24 29 Z " fill="#C6C7C8" transform="translate(17,9)"/>
</svg>
