<?xml version="1.0" encoding="UTF-8"?>
<svg version="1.1" xmlns="http://www.w3.org/2000/svg" width="460" height="460">
<path d="M0 0 C151.8 0 303.6 0 460 0 C460 151.8 460 303.6 460 460 C308.2 460 156.4 460 0 460 C0 308.2 0 156.4 0 0 Z M109.55859375 107.8671875 C104.89816437 114.24461717 104.45226657 122.70524349 105.24609375 130.37890625 C106.37539159 135.485731 108.6932214 140.89239777 112.6048587 144.46628886 C115.09435418 147.20304889 114.41935395 151.00062459 114.39872742 154.522995 C114.40537424 155.40352203 114.41202107 156.28404906 114.41886932 157.19125873 C114.43757973 160.15325678 114.43488863 163.11485374 114.43237305 166.0769043 C114.44138529 168.19555231 114.45171118 170.31419509 114.46325684 172.43283081 C114.49091601 178.19487973 114.50012345 183.95682996 114.50611091 189.71893668 C114.51547141 195.7368029 114.54167284 201.75459471 114.56611633 207.77241516 C114.60984911 219.17270043 114.63835442 230.57297132 114.66143972 241.97331506 C114.6884551 254.95020579 114.73236882 267.92702194 114.77772844 280.9038595 C114.8706718 307.6025342 114.94170869 334.3012291 115 361 C125.89 361 136.78 361 148 361 C148 350.44 148 339.88 148 329 C150.41712311 329.00444122 152.83424622 329.00888245 155.32461548 329.01345825 C178.0739038 329.05430371 200.82318729 329.08408049 223.57250404 329.10362434 C235.26889111 329.11393961 246.96525129 329.12800476 258.66162109 329.15087891 C268.85543949 329.17080508 279.0492384 329.18371462 289.24307573 329.18817699 C294.64127855 329.19078567 300.03942565 329.19692248 305.43761063 329.21146011 C310.51825248 329.22503177 315.59881562 329.22922346 320.67947388 329.22621536 C322.54429934 329.22676571 324.40912743 329.23074562 326.27393723 329.23841095 C328.82054904 329.24836564 331.36686394 329.24596695 333.91348267 329.24050903 C334.65084959 329.24633472 335.38821651 329.2521604 336.14792788 329.25816262 C340.47136682 329.23312884 344.02168242 328.72031648 348 327 C352.48835758 322.14772153 353.24623045 319.20535726 353.14453125 312.7890625 C352.74711327 305.11996962 351.49618209 300.22362305 346.57421875 294.3125 C343.93677194 290.43813645 342.76652555 286.05391744 341.30078125 281.6328125 C339.34665696 276.17534827 336.72249318 271.10818308 334 266 C333.34 266 332.68 266 332 266 C331.80664062 265.34773437 331.61328125 264.69546875 331.4140625 264.0234375 C330.61658006 261.346739 329.80953694 258.67307493 329 256 C328.67 254.906875 328.34 253.81375 328 252.6875 C326.95196935 249.87091763 325.57199136 247.55448595 324 245 C323.30686092 243.34416775 322.63525576 241.67889021 322 240 C321.67 239.34 321.34 238.68 321 238 C321.94817973 235.68559325 322.95465999 233.48695235 324.0625 231.25 C327.09308601 224.98526982 329.84658609 218.67712332 332.4453125 212.21875 C333.67680537 209.66912657 334.7687384 207.90516846 336.4609375 205.7109375 C339.55099376 201.54241816 340.95259105 197.0337662 342.5 192.125 C344.45053941 185.99340003 346.63292832 180.45981725 349.90112305 174.8996582 C353.21535407 169.17025772 353.67322321 163.48248798 353 157 C351.41804348 152.71941178 348.94285823 151.03418519 344.99484813 148.85027647 C341.66942606 147.43286123 338.34238282 147.44351685 334.79322815 147.48101807 C333.99503802 147.47351681 333.19684789 147.46601556 332.37447017 147.458287 C329.71495466 147.43807833 327.05629726 147.44609888 324.39672852 147.45410156 C322.48438172 147.44536283 320.57204223 147.434876 318.65971375 147.42277527 C313.47841705 147.39493152 308.29735915 147.39151023 303.11599851 147.39249516 C297.69739013 147.38936468 292.27888908 147.36374362 286.8603363 147.34051514 C276.60410671 147.29996203 266.34794069 147.27961601 256.09164327 147.26654124 C244.4132906 147.2506689 232.73504607 147.21225224 221.05675614 147.17194796 C197.03787373 147.0895584 173.0189943 147.03546035 149 147 C150.25770569 145.49637349 151.51541138 143.99274699 152.77311707 142.48912048 C157.97668991 136.17332075 158.79322325 130.03720115 158.58984375 121.91015625 C157.53106991 114.89139724 154.38693375 108.10988396 149.08984375 103.24609375 C136.51503203 95.74821536 119.54249025 97.2813513 109.55859375 107.8671875 Z " fill="#C6C8C9" transform="translate(0,0)"/>
</svg>
