<?xml version="1.0" encoding="UTF-8"?>
<svg version="1.1" xmlns="http://www.w3.org/2000/svg" width="167" height="163">
<path d="M0 0 C44.22 0 88.44 0 134 0 C134 13.5 134 13.5 133.5 19.25 C133.4071875 20.34828125 133.314375 21.4465625 133.21875 22.578125 C133.1465625 23.37734375 133.074375 24.1765625 133 25 C132.34 25 131.68 25 131 25 C131.02284058 26.08863594 131.02284058 26.08863594 131.04614258 27.19926453 C131.15726674 36.96822168 130.46731663 46.60096854 129.6875 56.33203125 C129.55254065 58.06219633 129.41802707 59.79239623 129.28393555 61.52262878 C128.93325878 66.03226696 128.57660948 70.54141268 128.21862793 75.05047607 C127.85301466 79.6694312 127.4931711 84.2888356 127.1328125 88.90820312 C126.42745677 97.93924581 125.71577784 106.96977779 125 116 C124.34 116 123.68 116 123 116 C123.01160156 116.94101563 123.02320313 117.88203125 123.03515625 118.8515625 C123.04417969 120.09679687 123.05320312 121.34203125 123.0625 122.625 C123.07410156 123.85476562 123.08570313 125.08453125 123.09765625 126.3515625 C123.00863924 129.67723791 122.63686087 132.74047588 122 136 C121.34 136 120.68 136 120 136 C120 136.66 120 137.32 120 138 C115.9397655 139.00935416 111.87647836 140.0058367 107.8125 141 C106.66201172 141.28617188 105.51152344 141.57234375 104.32617188 141.8671875 C103.21435547 142.13789063 102.10253906 142.40859375 100.95703125 142.6875 C99.42526245 143.06455078 99.42526245 143.06455078 97.86254883 143.44921875 C95.15693032 143.96980513 92.74584412 144.10586387 90 144 C90 144.66 90 145.32 90 146 C74.76877992 150.67510198 63.31475758 151.41912628 48 147 C46.66798654 146.66143092 45.33500295 146.32658231 44 146 C44 145.34 44 144.68 44 144 C42.75089844 143.88398438 41.50179687 143.76796875 40.21484375 143.6484375 C34.57556249 143.0187822 29.09470683 141.86669772 23.5625 140.625 C22.57056641 140.41617188 21.57863281 140.20734375 20.55664062 139.9921875 C19.61111328 139.78078125 18.66558594 139.569375 17.69140625 139.3515625 C16.83748291 139.16416504 15.98355957 138.97676758 15.10375977 138.78369141 C13 138 13 138 11 135 C9.67737679 126.44038188 9.87275671 117.63840552 10 109 C9.34 109 8.68 109 8 109 C7.21208281 98.40307327 6.4293643 87.80577616 5.65309143 77.20798969 C5.29239154 72.28585013 4.92997172 67.36385039 4.56347656 62.44213867 C4.20917055 57.68322984 3.85957145 52.92399555 3.51309204 48.16451073 C3.38078814 46.35813497 3.24685216 44.5518779 3.11117554 42.74575233 C2.36572873 32.80712038 1.78703376 22.9730035 2 13 C1.34 13 0.68 13 0 13 C0 8.71 0 4.42 0 0 Z M25 28 C25 30.64 25 33.28 25 36 C25.66 36 26.32 36 27 36 C27 40.29 27 44.58 27 49 C27.66 58.57 28.32 68.14 29 78 C48.47 78 67.94 78 88 78 C87.34 82.29 86.68 86.58 86 91 C85.64731917 93.99778707 85.30538714 96.99702651 85 100 C66.7772019 103.24475896 66.7772019 103.24475896 58.625 101.48828125 C55.29801229 100.7866458 55.29801229 100.7866458 49 101 C48.34 95.72 47.68 90.44 47 85 C41.39 85 35.78 85 30 85 C30.14191706 88.33354117 30.2884173 91.66677784 30.4375 95 C30.47681641 95.93457031 30.51613281 96.86914062 30.55664062 97.83203125 C30.80390653 103.27188123 31.24319168 108.60694577 32 114 C35.56044445 114.84228458 39.12365344 115.67223903 42.6875 116.5 C43.69490234 116.73847656 44.70230469 116.97695312 45.74023438 117.22265625 C46.71669922 117.44824219 47.69316406 117.67382812 48.69921875 117.90625 C50.04246216 118.22045898 50.04246216 118.22045898 51.4128418 118.54101562 C53.99969065 118.99994512 56.37888974 119.08261971 59 119 C59 119.66 59 120.32 59 121 C65.41395823 122.93012632 69.61299527 123.09029246 76 121 C76 120.34 76 119.68 76 119 C77.155 118.9175 78.31 118.835 79.5 118.75 C84.27343848 118.2298176 88.8503843 117.16136884 93.5 116 C94.21865234 115.82178711 94.93730469 115.64357422 95.67773438 115.45996094 C99.12274519 114.79443566 99.12274519 114.79443566 102 113 C102.30413466 110.27290677 102.54902783 107.56322711 102.75390625 104.828125 C102.81907944 103.99472595 102.88425262 103.1613269 102.95140076 102.30267334 C103.08893506 100.5273151 103.22412037 98.7517736 103.35717773 96.97607422 C103.55854873 94.30246119 103.76990155 91.62977815 103.98242188 88.95703125 C104.11519699 87.22660948 104.2473755 85.4961418 104.37890625 83.765625 C104.44139053 82.98278137 104.50387482 82.19993774 104.56825256 81.39337158 C105.06962231 74.54254731 105 67.93177671 105 61 C84.87 61 64.74 61 44 61 C44 57.37 44 53.74 44 50 C43.67 48.02 43.34 46.04 43 44 C64.45 44 85.9 44 108 44 C108.33 38.72 108.66 33.44 109 28 C81.28 28 53.56 28 25 28 Z " fill="#C6C7C8" transform="translate(17,10)"/>
</svg>
