<?xml version="1.0" encoding="UTF-8"?>
<svg version="1.1" xmlns="http://www.w3.org/2000/svg" width="167" height="163">
<path d="M0 0 C53.13 0 106.26 0 161 0 C161 52.8 161 105.6 161 160 C107.87 160 54.74 160 0 160 C0 107.2 0 54.4 0 0 Z M111 76 C110.34644531 76.25523438 109.69289063 76.51046875 109.01953125 76.7734375 C104.2751631 78.97870883 102.43089764 81.87680715 100.6640625 86.578125 C98.67586528 93.82919721 99.85203738 99.26729078 103.44140625 105.8359375 C105.86791567 109.20507589 108.21813189 110.31166602 112 112 C112.804375 112.53625 113.60875 113.0725 114.4375 113.625 C117.87444713 115.46921553 121.19354497 116.16128957 125 117 C125 117.66 125 118.32 125 119 C126.77074147 120.14356764 126.77074147 120.14356764 128.9375 121.25 C132.02811845 123.11095854 132.84116306 123.6108495 134.25 127.0625 C134 130 134 130 132.5625 132.3125 C129.15686984 134.55523206 126.00305864 135.08962072 122 135 C118.1875 134.125 118.1875 134.125 115 133 C113.515 132.505 113.515 132.505 112 132 C111.33333333 130.66666667 110.66666667 129.33333333 110 128 C107.012594 126.62768396 107.012594 126.62768396 104.30078125 128.21484375 C103.31464844 128.78332031 102.32851562 129.35179687 101.3125 129.9375 C100.31863281 130.50339844 99.32476562 131.06929687 98.30078125 131.65234375 C97.54152344 132.09707031 96.78226562 132.54179687 96 133 C97.2244062 136.54117479 98.35306166 138.73698326 101.25 141.125 C101.81203125 141.60195312 102.3740625 142.07890625 102.953125 142.5703125 C111.28466884 148.38967328 121.96254532 149.87921859 131.9375 148.5 C138.84275163 146.91518815 144.13383915 142.89865684 148 137 C150.93006255 129.44208163 149.92623806 122.4146032 147 115 C142.0869381 108.40245973 133.87411541 104.84959902 126.6875 101.1875 C125.77109741 100.71594482 125.77109741 100.71594482 124.83618164 100.23486328 C122.01601716 98.82732103 120.1971826 98 117 98 C117 95.03 117 92.06 117 89 C121.05989745 86.97005127 122.6119696 86.5522418 127 87 C131.63235294 89.26470588 131.63235294 89.26470588 133 92 C137.67105792 90.44298069 141.08705685 87.91552627 145 85 C141.79116577 78.92010357 137.58488824 75.73020574 131.16796875 73.5390625 C123.990079 71.75428991 117.69405706 73.18531421 111 76 Z M73 74 C72.98541748 75.6399292 72.97083496 77.2798584 72.95581055 78.96948242 C72.89783377 85.05450229 72.82059992 91.13915189 72.73754883 97.22387695 C72.70429675 99.85727936 72.67626576 102.49075309 72.65356445 105.12426758 C72.62002471 108.90997711 72.5677068 112.69503289 72.51171875 116.48046875 C72.50213387 118.2463459 72.50213387 118.2463459 72.49235535 120.04789734 C72.47256119 121.14866104 72.45276703 122.24942474 72.43237305 123.38354492 C72.42126999 124.34951096 72.41016693 125.31547699 72.39872742 126.31071472 C71.92348984 129.51603584 70.93267247 131.41384231 69 134 C65.44991933 135.23481067 63.76361299 135.33741039 60.3125 133.8125 C58.05887827 132.04614783 56.56284486 130.38539479 55 128 C50.22390502 129.64178265 46.20617096 132.26546702 42 135 C42.66 135.33 43.32 135.66 44 136 C44.20625 136.721875 44.4125 137.44375 44.625 138.1875 C46.98973822 143.02446453 51.21233601 145.8989478 56.17578125 147.859375 C63.00379223 149.65430506 69.72511927 149.23580405 76.3125 146.75 C81.42753001 143.41928278 84.90299014 139.76677711 87 134 C88.38734937 124.56340665 88.15436519 114.92327457 88.13037109 105.40869141 C88.12499504 102.87266098 88.13035544 100.33680644 88.13671875 97.80078125 C88.1396586 89.79908492 88.02429436 81.95047524 87 74 C82.38 74 77.76 74 73 74 Z " fill="#C6C7C8" transform="translate(3,2)"/>
</svg>
