<?xml version="1.0" encoding="UTF-8"?>
<svg version="1.1" xmlns="http://www.w3.org/2000/svg" width="3333" height="3333">
<path d="M0 0 C0.66 0.33 1.32 0.66 2 1 C1.67950684 1.62527588 1.35901367 2.25055176 1.02880859 2.89477539 C-19.4612686 43.01604257 -36.54104634 84.3398341 -51 127 C-51.40557129 128.19077148 -51.81114258 129.38154297 -52.22900391 130.60839844 C-80.89016559 215.35514297 -94.6947092 304.75041117 -79 620 C-78.75570251 621.26886047 -78.75570251 621.26886047 -78.50646973 622.56335449 C-61.7717226 709.03911154 -34.78893615 793.34523962 22 918 C22.61892115 919.26280941 23.23740301 920.5258342 23.85546875 921.7890625 C31.60039835 937.60961169 39.70285645 953.12610995 48.51074219 968.38867188 C50.40604059 971.71196888 52.23172362 975.07029382 54.05297852 978.43457031 C74.09957395 1015.4402523 97.59911678 1050.73492995 122 1085 C122.52867676 1085.74475586 123.05735352 1086.48951172 123.60205078 1087.25683594 C138.9639533 1108.86260852 155.25027146 1129.77710641 172.00390625 1150.31640625 C174.39996053 1153.25603408 176.7693991 1156.21530009 179.125 1159.1875 C183.95164535 1165.23595306 188.97778658 1171.11423108 194 1177 C194.50112305 1177.58894043 195.00224609 1178.17788086 195.51855469 1178.78466797 C201.2587739 1185.53024662 207.04321914 1192.22137387 212.99609375 1198.78125 C214.81311982 1200.79308393 216.59944392 1202.82660434 218.375 1204.875 C222.62081683 1209.74121016 226.98920913 1214.49337294 231.37164307 1219.23620605 C232.41218349 1220.36329242 233.45149243 1221.49151776 234.48919678 1222.62121582 C245.86952655 1234.99582655 257.72940796 1246.88469566 269.62719727 1258.75756836 C272.40618225 1261.53080017 275.18057309 1264.30857835 277.95371151 1267.08765507 C280.12335248 1269.26092846 282.29539244 1271.43179172 284.46814156 1273.60195732 C285.4921832 1274.62534005 286.51550539 1275.64944331 287.53803825 1276.67433357 C292.66829641 1281.81384745 297.82728462 1286.84885611 303.34107971 1291.57688904 C305.35689474 1293.30616349 307.29444022 1295.10730318 309.21875 1296.9375 C309.92386719 1297.60523437 310.62898438 1298.27296875 311.35546875 1298.9609375 C312.78515625 1300.3203125 314.21484375 1301.6796875 315.64453125 1303.0390625 C322.27811078 1309.32095317 329.13783716 1315.30405349 336.125 1321.1875 C340.21546219 1324.63622645 344.28985903 1328.10225459 348.34472656 1331.59277344 C354.81696013 1337.16322569 361.36573269 1342.62275176 368 1348 C369.26077822 1349.03080794 370.52116891 1350.06208999 371.78125 1351.09375 C380.08014811 1357.87857204 388.47332858 1364.50399471 397 1371 C398.5719533 1372.2132657 400.14389984 1373.4265409 401.71484375 1374.64111328 C429.33176581 1395.96995254 457.91078311 1415.74063992 487 1435 C488.41539062 1435.93996826 488.41539062 1435.93996826 489.859375 1436.89892578 C512.69271711 1452.04275726 536.05458696 1466.1062506 560.03564453 1479.35009766 C562.92050611 1480.95575525 565.78894075 1482.5868944 568.65234375 1484.23046875 C583.21873192 1492.58756497 598.04412897 1500.38921158 613.01446533 1507.9909668 C615.0365873 1509.01859338 617.05721441 1510.04911435 619.07763672 1511.08007812 C639.16321063 1521.31851386 659.44484441 1531.00406989 680.05639648 1540.13726807 C681.93827718 1540.97260231 683.81808551 1541.81241931 685.69726562 1542.65380859 C734.16007672 1564.30167036 784.33048168 1582.26638434 835 1598 C836.49850494 1598.46563354 836.49850494 1598.46563354 838.02728271 1598.94067383 C871.64760459 1609.34878375 905.40845492 1617.5393067 940 1624 C941.52684418 1624.28586975 941.52684418 1624.28586975 943.08453369 1624.57751465 C957.35914218 1627.23970459 971.66157513 1629.70688587 986 1632 C986.85694458 1632.1373053 987.71388916 1632.2746106 988.59680176 1632.41607666 C1047.79568266 1641.84752765 1107.82520251 1647.14427395 1167.75 1648.5625 C1168.61761963 1648.58334656 1169.48523926 1648.60419312 1170.37915039 1648.62567139 C1184.58938473 1648.96257155 1198.78567984 1649.20493771 1213 1649 C1213.99314209 1648.9870993 1213.99314209 1648.9870993 1215.00634766 1648.97393799 C1305.9351632 1647.77736959 1396.44712326 1637.23127815 1655 1557 C1656.13614746 1556.48195801 1657.27229492 1555.96391602 1658.44287109 1555.43017578 C1680.60070055 1545.30543315 1702.18703239 1534.63162224 1723.32666016 1522.51806641 C1726.42781608 1520.75706298 1729.5550142 1519.04852838 1732.68847656 1517.34594727 C1773.342261 1495.17327977 1811.49223002 1467.81162223 1847.2265625 1438.453125 C1848.8432593 1437.12843071 1850.46808288 1435.8136704 1852.09375 1434.5 C1857.42766247 1430.18492475 1862.59429548 1425.73542868 1867.66796875 1421.1171875 C1869.75823889 1419.21948831 1871.86986115 1417.35266585 1874 1415.5 C1891.5107068 1400.20847188 1909.44316725 1384.49190031 1924.49609375 1366.72265625 C1926.09105998 1364.89569493 1927.77017842 1363.19940713 1929.5 1361.5 C1932.53594925 1358.51127663 1935.34508659 1355.38293521 1938.125 1352.15625 C1940.17359094 1349.80037042 1942.27203002 1347.4949254 1944.375 1345.1875 C1948.6201751 1340.47856628 1952.63877782 1335.61695479 1956.625 1330.68847656 C1958.2292174 1328.71852494 1959.84813784 1326.76117329 1961.46875 1324.8046875 C1962.08210205 1324.06355713 1962.6954541 1323.32242676 1963.32739258 1322.55883789 C1964.53434007 1321.10128127 1965.74244254 1319.64467998 1966.9519043 1318.18920898 C1970.77795461 1313.56082574 1974.44029742 1308.83617386 1978 1304 C1978.66 1304.33 1979.32 1304.66 1980 1305 C1964.16505363 1344.18770464 1944.72760439 1381.76760771 1923 1418 C1922.1025708 1419.50167725 1922.1025708 1419.50167725 1921.18701172 1421.03369141 C1906.20950032 1446.00412873 1890.1501042 1470.46360108 1873 1494 C1872.4440918 1494.7640918 1871.88818359 1495.52818359 1871.31542969 1496.31542969 C1864.02024451 1506.3219589 1856.61889391 1516.23752662 1849 1526 C1848.5555957 1526.57057129 1848.11119141 1527.14114258 1847.65332031 1527.72900391 C1838.50720425 1539.46406604 1829.10096171 1550.96401095 1819.45458984 1562.29101562 C1818.47460698 1563.44238858 1817.49578855 1564.59475354 1816.51806641 1565.74804688 C1810.37373579 1572.99551407 1804.13672424 1580.12575717 1797.66796875 1587.0859375 C1795.66361179 1589.27517658 1793.70204756 1591.48233206 1791.75732422 1593.72338867 C1780.68765276 1606.3890173 1768.832677 1618.32987494 1756.92700195 1630.20336914 C1754.53673893 1632.58820255 1752.15196242 1634.97843105 1749.76757812 1637.36914062 C1748.22167518 1638.91438372 1746.67546257 1640.45931709 1745.12890625 1642.00390625 C1744.08024132 1643.05560753 1744.08024132 1643.05560753 1743.01039124 1644.1285553 C1739.07261617 1648.04785188 1735.03932358 1651.7961049 1730.82318115 1655.41493225 C1727.68926974 1658.13954462 1724.70091938 1661.01874672 1721.6875 1663.875 C1716.48896569 1668.76849848 1711.18009647 1673.4111012 1705.59765625 1677.8671875 C1702.86445114 1680.11129275 1700.27863407 1682.46867753 1697.6875 1684.875 C1693.05110514 1689.14154 1688.22770177 1693.05119842 1683.24926758 1696.90283203 C1679.54792807 1699.76932445 1675.93975084 1702.71317418 1672.375 1705.75 C1664.65244784 1712.23694381 1656.5216263 1718.18112384 1648.42626953 1724.19091797 C1646.26288021 1725.8039905 1644.11071498 1727.4301457 1641.96484375 1729.06640625 C1609.38300842 1753.87688912 1574.5413469 1775.71231066 1539 1796 C1537.93942383 1796.60650391 1536.87884766 1797.21300781 1535.78613281 1797.83789062 C1461.71738731 1839.98007231 1382.02626179 1872.05170386 1061.5625 1933.75 C1060.20229233 1933.83888489 1060.20229233 1933.83888489 1058.81460571 1933.92956543 C1052.54525494 1934.33160049 1046.2741572 1934.6821444 1040 1935 C1038.59358246 1935.0725853 1038.59358246 1935.0725853 1037.15875244 1935.14663696 C1016.52873144 1936.17462592 995.89990886 1936.20151754 975.25 1936.1875 C974.36752468 1936.18723312 973.48504936 1936.18696625 972.57583237 1936.18669128 C945.27372198 1936.17634418 918.03200394 1935.95525837 890.77758789 1934.18035889 C887.84748326 1933.99009653 884.9169454 1933.80767285 881.98632812 1933.62548828 C827.0288875 1930.15545727 772.35987435 1923.74857841 718 1915 C716.53732697 1914.76573303 716.53732697 1914.76573303 715.04510498 1914.5267334 C695.08485247 1911.32162154 675.33781536 1908.00567296 656 1902 C654.53093001 1901.55359658 653.06149903 1901.1083802 651.59179688 1900.6640625 C627.60619061 1893.41050167 603.74569697 1885.80225795 580.03491211 1877.69482422 C578.07828032 1877.02672895 576.12037777 1876.36249913 574.16210938 1875.69921875 C528.99630609 1860.33475908 485.09857202 1841.39507924 442 1821 C440.83533203 1820.44924805 439.67066406 1819.89849609 438.47070312 1819.33105469 C425.07958661 1812.98188194 411.79821493 1806.48698515 398.74511719 1799.46826172 C396.12321203 1798.06590156 393.49438801 1796.67720432 390.86303711 1795.29266357 C375.40837071 1787.16010044 360.16459945 1778.77301907 345.14453125 1769.85546875 C341.73255266 1767.84218946 338.30557211 1765.85634619 334.875 1763.875 C320.56825735 1755.59831239 306.5609704 1747.01203517 292.79589844 1737.8515625 C288.94255331 1735.29971396 285.06256079 1732.78975831 281.18359375 1730.27709961 C270.00013414 1723.02590672 258.9423324 1715.60996057 248 1708 C246.93023926 1707.2565332 246.93023926 1707.2565332 245.83886719 1706.49804688 C218.67975877 1687.57765836 192.43792011 1667.4131953 166.80859375 1646.4765625 C165.2076452 1645.16952459 163.60402024 1643.86576644 162 1642.5625 C150.15523911 1632.92141556 138.57228813 1622.96513118 127 1613 C125.89205078 1612.04673828 125.89205078 1612.04673828 124.76171875 1611.07421875 C120.28954782 1607.19463362 115.92327616 1603.20204774 111.56860352 1599.19165039 C108.34294568 1596.22221502 105.08838643 1593.28916335 101.8125 1590.375 C97.85836299 1586.83209324 94.09334648 1583.14768155 90.3984375 1579.3359375 C88.47759198 1577.46514659 86.53518597 1575.73275493 84.4987793 1573.99438477 C79.31570055 1569.47132738 74.47825575 1564.6217428 69.62109375 1559.75390625 C68.64053119 1558.77401947 67.65982041 1557.79428099 66.67897034 1556.81468201 C64.63599787 1554.7731736 62.59481831 1552.72989434 60.55493164 1550.68530273 C57.96080134 1548.08547596 55.36220566 1545.49016627 52.7622366 1542.89618015 C50.73992175 1540.87750604 48.7200281 1538.85642267 46.70082283 1536.8346386 C45.28483754 1535.41767676 43.86686485 1534.00270183 42.44883728 1532.58778381 C37.97245583 1528.09526866 33.61934272 1523.56163574 29.51283264 1518.72691345 C27.91397508 1516.90180171 26.23213339 1515.19844496 24.5 1513.5 C21.50765625 1510.55399785 18.74675828 1507.47016993 16.0078125 1504.2890625 C14.05637213 1502.06426861 12.05816352 1499.88829499 10.04541016 1497.71899414 C5.21695515 1492.51292706 0.6349487 1487.1818402 -3.8203125 1481.6484375 C-5.97757399 1479.02724881 -8.21311 1476.50845719 -10.5 1474 C-14.29163754 1469.82985132 -17.88985177 1465.54207025 -21.43359375 1461.16015625 C-23.34423039 1458.79762313 -25.27844765 1456.45607521 -27.22265625 1454.12109375 C-33.73682372 1446.28743906 -40.09103716 1438.36745958 -46.23852539 1430.24243164 C-49.8081403 1425.53101888 -53.4663916 1420.90487483 -57.1875 1416.3125 C-62.26803815 1410.01842867 -66.99787304 1403.53246437 -71.64453125 1396.91455078 C-73.66096272 1394.06641397 -75.71579581 1391.24655361 -77.76757812 1388.42382812 C-131.65741036 1314.23864387 -178.07337942 1233.49264606 -214.08184814 1149.14624023 C-215.00127543 1146.9970186 -215.92727149 1144.85073655 -216.85498047 1142.70507812 C-240.57147263 1087.7657709 -259.88506558 1030.88878878 -275 973 C-275.33164154 971.73017273 -275.33164154 971.73017273 -275.66998291 970.43469238 C-293.26986623 902.76720675 -304.14352283 833.72645548 -309 764 C-309.06670898 763.06929687 -309.13341797 762.13859375 -309.20214844 761.1796875 C-310.02270793 749.41024247 -310.23931989 737.60377581 -310.5625 725.8125 C-310.5849176 725.00225372 -310.60733521 724.19200745 -310.63043213 723.35720825 C-312.95456144 637.75177881 -303.8069682 551.80890092 -199 264 C-198.12755025 262.48570814 -197.25515119 260.97138708 -196.3828125 259.45703125 C-183.00119629 236.35582973 -168.55268707 213.75196757 -151.77172852 192.96655273 C-147.95253941 188.22600283 -144.24022566 183.41335537 -140.5625 178.5625 C-135.79034653 172.27513972 -130.88170802 166.12156781 -125.87524414 160.01977539 C-121.980836 155.25487314 -118.21654426 150.40456495 -114.5 145.5 C-109.70007467 139.16782975 -104.77064022 132.96205139 -99.73876953 126.81298828 C-94.85755671 120.84476408 -90.08815899 114.79422404 -85.34277344 108.71777344 C-83.06766067 105.80728372 -80.7833163 102.90405504 -78.5 100 C-77.58329022 98.83336721 -76.66662352 97.66670056 -75.75 96.5 C-70.25 89.5 -64.75 82.5 -59.25 75.5 C-58.79633057 74.92258057 -58.34266113 74.34516113 -57.87524414 73.75024414 C-56.95784991 72.5826959 -56.04036933 71.41521551 -55.12280273 70.24780273 C-52.84155755 67.3451721 -50.56178786 64.44140726 -48.28515625 61.53515625 C-43.05509493 54.86231939 -37.786497 48.22245764 -32.48291016 41.60791016 C-27.74211475 35.68996284 -23.05654982 29.72968699 -18.38085938 23.76025391 C-16.94945737 21.93557065 -15.51428129 20.11391193 -14.078125 18.29296875 C-9.31228524 12.24745711 -4.57971363 6.18880221 0 0 Z " fill="#C7C8C9" transform="translate(804,891)"/>
<path d="M0 0 C0.33 0.66 0.66 1.32 1 2 C0.07885742 4.12866211 0.07885742 4.12866211 -1.39453125 6.77734375 C-1.93263428 7.75517822 -2.4707373 8.7330127 -3.02514648 9.74047852 C-3.61497314 10.79549561 -4.2047998 11.8505127 -4.8125 12.9375 C-6.02923265 15.15332371 -7.24537316 17.36947266 -8.4609375 19.5859375 C-9.64020773 21.72418852 -10.8198629 23.8622273 -12 26 C-48.46964644 92.08020395 -70.02092607 166.17604537 -85 280 C-85.1544458 281.95196289 -85.1544458 281.95196289 -85.31201172 283.94335938 C-91.23071598 360.74211368 -84.25835817 438.32617908 -49 574 C-48.7658136 574.72554077 -48.5316272 575.45108154 -48.29034424 576.1986084 C-31.11966397 629.25492959 -8.50579902 681.03149836 19.44726562 729.3046875 C20.96734732 731.94331988 22.46398456 734.5938029 23.953125 737.25 C48.55822476 781.03078935 77.71567695 822.34364617 109.51171875 861.1796875 C110.81409379 862.77261865 112.11066032 864.3702952 113.40625 865.96875 C122.05959691 876.62867011 130.98497025 887.0287897 140.33203125 897.0859375 C142.33456805 899.27318853 144.29409267 901.47832712 146.23681641 903.7175293 C149.71144137 907.69330019 153.265699 911.58367176 156.87890625 915.43359375 C157.51985733 916.11659042 158.16080841 916.7995871 158.82118225 917.50328064 C165.67951068 924.77388573 172.71368161 931.86511451 179.79125977 938.92163086 C181.96424335 941.08917642 184.13172363 943.262125 186.29882812 945.43554688 C187.70801229 946.84407127 189.11750606 948.252286 190.52734375 949.66015625 C191.16083237 950.2956691 191.79432098 950.93118195 192.44700623 951.58595276 C196.23137726 955.35082138 200.12805857 958.93189262 204.17510986 962.41322327 C207.13184217 964.98415833 209.96289732 967.68672665 212.8125 970.375 C217.85565818 975.09873109 223.02690976 979.56834291 228.421875 983.890625 C231.0242629 986.01985146 233.51575502 988.23449357 236 990.5 C241.17546974 995.20423388 246.5514389 999.61715487 252 1004 C253.10956783 1004.90210662 254.21893441 1005.80446083 255.328125 1006.70703125 C264.87284323 1014.44197515 274.65917352 1021.83409076 284.52392578 1029.15478516 C286.80561088 1030.85513775 289.07450426 1032.57093604 291.33984375 1034.29296875 C312.65140104 1050.38536915 335.24991115 1065.0306472 358 1079 C358.58604004 1079.36206543 359.17208008 1079.72413086 359.77587891 1080.09716797 C364.1489703 1082.79185018 368.56450125 1085.40950814 373 1088 C373.97018066 1088.56702637 374.94036133 1089.13405273 375.93994141 1089.71826172 C391.9394596 1099.03676753 408.10522227 1107.9135689 424.62451172 1116.28662109 C427.99670974 1117.99832988 431.35979221 1119.72707059 434.72265625 1121.45703125 C508.8724467 1159.35190836 589.40682404 1186.55595858 795 1220 C795.64269836 1220.04096802 796.28539673 1220.08193604 796.9475708 1220.12414551 C813.28727009 1221.15841645 829.63310365 1221.24533147 846 1221.25 C846.71274708 1221.25044186 847.42549416 1221.25088371 848.15983963 1221.25133896 C873.53901503 1221.2595556 898.72991287 1220.50389491 924 1218 C925.29795502 1217.87271515 925.29795502 1217.87271515 926.62213135 1217.74285889 C1009.42351482 1209.54061048 1090.01447763 1188.49691696 1239 1115 C1239.91023926 1114.44151367 1240.82047852 1113.88302734 1241.75830078 1113.30761719 C1268.15385302 1097.03127251 1293.32527016 1078.78901874 1316.89453125 1058.6328125 C1319.84420349 1056.11661783 1322.85470418 1053.68107031 1325.875 1051.25 C1329.55377274 1048.25800249 1332.96423153 1045.16837483 1336.24780273 1041.7512207 C1337.86070613 1040.13921624 1339.51836835 1038.68572354 1341.265625 1037.22265625 C1347.48028875 1031.82021304 1353.22593392 1025.92277777 1359.03637695 1020.09399414 C1361.05764268 1018.0673702 1363.08419574 1016.04614453 1365.11132812 1014.02539062 C1371.28624182 1007.85399486 1377.38312642 1001.69107051 1383 995 C1384.04433407 993.80766551 1385.09123225 992.6175722 1386.140625 991.4296875 C1392.84650219 983.77998074 1399.2909426 975.98771374 1405.50195312 967.93212891 C1407.16086162 965.79252626 1408.83720877 963.66729935 1410.515625 961.54296875 C1416.54803268 953.88456651 1422.38487269 946.27383468 1427.546875 937.9921875 C1428.02640625 937.33476563 1428.5059375 936.67734375 1429 936 C1429.66 936 1430.32 936 1431 936 C1428.89520273 944.65231888 1425.90396641 952.81987189 1422.5625 961.0625 C1422.30089081 961.71206665 1422.03928162 962.3616333 1421.76974487 963.03088379 C1416.30715599 976.57001057 1410.34335194 989.84958907 1404 1003 C1403.47792969 1004.08265137 1402.95585937 1005.16530273 1402.41796875 1006.28076172 C1394.85962261 1021.85950617 1386.77121833 1037.0707636 1378 1052 C1377.45794922 1052.92312988 1376.91589844 1053.84625977 1376.35742188 1054.79736328 C1351.35231276 1097.12448866 1322.1440192 1137.34007319 1289.0546875 1173.7265625 C1287.13063862 1175.85545309 1285.24854188 1178.01419142 1283.375 1180.1875 C1280.65757164 1183.31191648 1277.79520281 1186.23012611 1274.83959961 1189.12792969 C1273.07714345 1190.92149489 1271.44031951 1192.77115689 1269.80859375 1194.68359375 C1265.90953362 1199.16632699 1261.77355355 1203.37418841 1257.5625 1207.5625 C1256.49418945 1208.63661133 1256.49418945 1208.63661133 1255.40429688 1209.73242188 C1251.37494771 1213.7544516 1247.24790131 1217.5930133 1242.93579102 1221.30932617 C1239.76898825 1224.07513638 1236.73879123 1226.98321362 1233.6875 1229.875 C1228.52070379 1234.73353164 1223.2638362 1239.38067933 1217.71875 1243.80859375 C1215.263882 1245.78730201 1212.8637926 1247.8183026 1210.47460938 1249.87548828 C1202.96123482 1256.33157784 1195.1613134 1262.37140313 1187.24023438 1268.31738281 C1185.76506242 1269.42536942 1184.29233506 1270.53661947 1182.82226562 1271.65136719 C1111.82508806 1325.45540552 1030.06736989 1364.71519718 738 1423 C736.1732373 1423.11021484 736.1732373 1423.11021484 734.30957031 1423.22265625 C644.34888652 1428.37109112 534.35725501 1428.26251571 448.21875 1399.07666016 C444.42138538 1397.80645552 440.60310688 1396.61194126 436.78125 1395.41796875 C365.59899841 1373.06130568 296.48234741 1343.64807861 232 1306 C230.88641113 1305.35256836 229.77282227 1304.70513672 228.62548828 1304.03808594 C208.21664049 1292.14567433 188.51093397 1279.30705286 169 1266 C167.99163086 1265.31389648 166.98326172 1264.62779297 165.94433594 1263.92089844 C154.68725282 1256.23519431 143.78302307 1248.1398256 132.984375 1239.82421875 C129.18613395 1236.89974805 125.3563501 1234.02322752 121.50341797 1231.17138672 C114.7673972 1226.18216734 108.29370611 1220.97974679 101.94140625 1215.51171875 C99.35495477 1213.30310215 96.73268332 1211.16825432 94.0625 1209.0625 C84.52654966 1201.48620288 75.38889815 1193.45915003 66.48217773 1185.15600586 C63.61657047 1182.4847669 60.72353261 1179.86292125 57.75 1177.3125 C54.13382566 1174.19013098 50.79448979 1170.83432024 47.46875 1167.40625 C45.52493629 1165.51164676 43.56472296 1163.75587722 41.50390625 1161.99609375 C36.12445159 1157.3262106 31.12438672 1152.27406295 26.09985352 1147.23022461 C24.4407268 1145.56573723 22.77631949 1143.90666553 21.11132812 1142.24804688 C12.25908773 1133.40068981 12.25908773 1133.40068981 8.65234375 1129.140625 C5.32177661 1125.23965446 1.71059455 1121.65151302 -1.9296875 1118.04296875 C-2.56863449 1117.40952042 -3.20758148 1116.77607208 -3.8658905 1116.12342834 C-6.53608336 1113.48089412 -9.2096259 1110.8418195 -11.88818359 1108.20776367 C-19.75628486 1100.46173044 -27.21459114 1092.72758953 -34 1084 C-35.01226995 1082.75637614 -36.02752696 1081.51517263 -37.046875 1080.27734375 C-48.63494834 1066.01138954 -59.09271162 1050.93759682 -69.59765625 1035.8671875 C-71.73737036 1032.79976095 -73.88871601 1029.74147345 -76.05859375 1026.6953125 C-127.17257382 954.93314164 -168.37105994 876.14932782 -230.75 634.6875 C-230.85114105 633.82792694 -230.9522821 632.96835388 -231.05648804 632.08273315 C-234.2045293 605.0098381 -235.38776253 577.96980338 -235.31785583 550.73814392 C-235.31239349 548.51923452 -235.31004161 546.30033585 -235.3079834 544.0814209 C-235.27514414 521.32381675 -234.68835299 498.71584672 -232.22460938 476.07427979 C-232.00154483 474.01426657 -231.78874117 471.95340946 -231.578125 469.89208984 C-223.39089112 390.79330757 -200.39207057 314.12553584 -153 221 C-152.50886719 220.13358887 -152.01773437 219.26717773 -151.51171875 218.37451172 C-139.41742279 197.09620742 -125.64534737 176.84625277 -111.39892578 156.95947266 C-109.43997452 154.21557338 -107.50297865 151.45641998 -105.56420898 148.69824219 C-100.94932393 142.1349168 -96.27920014 135.61549587 -91.5625 129.125 C-87.05907629 122.92462426 -82.67891669 116.65286363 -78.375 110.3125 C-74.11338264 104.03472212 -69.75074853 97.85904445 -65.22949219 91.76611328 C-60.81421028 85.79707113 -56.57646036 79.70859128 -52.33447266 73.61572266 C-48.42695871 68.01271615 -44.4571126 62.46051101 -40.4375 56.9375 C-35.9740344 50.80057356 -31.63680087 44.59105719 -27.375 38.3125 C-22.61183518 31.29654465 -17.70437805 24.41452881 -12.65625 17.6015625 C-8.35554789 11.79369469 -4.1848963 5.89153514 0 0 Z " fill="#C7C8C9" transform="translate(1409,672)"/>
<path d="M0 0 C0.33 0.66 0.66 1.32 1 2 C-0.02903153 4.33926988 -1.12184402 6.55623285 -2.3125 8.8125 C-3.06141425 10.27656803 -3.80873343 11.74145277 -4.5546875 13.20703125 C-4.95397461 13.98771973 -5.35326172 14.7684082 -5.76464844 15.57275391 C-13.62002644 31.00717448 -20.29674365 46.64476759 -26 63 C-26.34804687 63.99483398 -26.69609375 64.98966797 -27.0546875 66.01464844 C-36.61411581 93.69566217 -42.29243102 122.02121184 -46 151 C-46.13277344 152.01030273 -46.26554687 153.02060547 -46.40234375 154.06152344 C-50.47155803 186.53522502 -49.12595094 220.59059392 -45 253 C-44.83902832 254.28487305 -44.67805664 255.56974609 -44.51220703 256.89355469 C-37.79781614 308.55759986 -22.13165242 358.89929764 -0.32666016 406.125 C0.83383472 408.63990388 1.97714999 411.16153289 3.11328125 413.6875 C16.19548881 442.49373952 33.01788628 470.02074363 51 496 C51.45036621 496.65210449 51.90073242 497.30420898 52.36474609 497.97607422 C74.52527142 529.90254315 99.96791753 559.02484188 127.375 586.5 C127.98682129 587.11450012 128.59864258 587.72900024 129.22900391 588.36212158 C135.64048243 594.79486573 142.04343314 601.15052107 149 607 C150.10671477 607.96080622 151.21221224 608.92301664 152.31640625 609.88671875 C183.63781719 636.97938084 217.77681253 660.91298106 254 681 C255.00981934 681.56589844 256.01963867 682.13179687 257.06005859 682.71484375 C331.01155356 724.03289787 412.97174729 747.96948456 550.12109375 761.203125 C552.05778427 761.21364647 552.05778427 761.21364647 554.03359985 761.22438049 C558.16823843 761.24373647 562.30282066 761.24881339 566.4375 761.25 C567.14194622 761.25044186 567.84639244 761.25088371 568.57218552 761.25133896 C589.51892325 761.258228 610.22899063 761.05551624 631 758 C632.24217285 757.82307617 633.4843457 757.64615234 634.76416016 757.46386719 C699.72486946 747.99809377 760.35987348 724.9629092 812 684 C812.89847656 683.29617188 813.79695313 682.59234375 814.72265625 681.8671875 C822.88667026 675.35040459 830.46600312 668.22537533 838 661 C838.55929199 660.46407227 839.11858398 659.92814453 839.69482422 659.37597656 C845.86770453 653.4253573 851.60116584 647.28228021 856.9375 640.5546875 C858.79600016 638.25268161 860.7318579 636.09859383 862.75 633.9375 C867.52209064 628.67274413 871.53138484 622.83816621 875.60839844 617.03100586 C876.14754883 616.26796143 876.68669922 615.50491699 877.2421875 614.71875 C877.7254248 614.02716797 878.20866211 613.33558594 878.70654297 612.62304688 C880 611 880 611 882 610 C880.67720066 613.47685121 879.15489854 616.69184323 877.33984375 619.9375 C876.80262695 620.89962402 876.26541016 621.86174805 875.71191406 622.85302734 C875.12635742 623.89152832 874.54080078 624.9300293 873.9375 626 C873.3197168 627.09650879 872.70193359 628.19301758 872.06542969 629.32275391 C870.0507048 632.88591583 868.02704618 636.44384163 866 640 C865.49608734 640.88600891 865.49608734 640.88600891 864.98199463 641.78991699 C847.08555653 673.242436 827.23716896 703.19747114 804 731 C803.27031006 731.87833496 803.27031006 731.87833496 802.52587891 732.77441406 C789.78960649 748.06483242 776.20228334 763.24470425 761.07421875 776.203125 C758.79842282 778.1746243 756.59077333 780.21134395 754.375 782.25 C748.17439706 787.83621393 741.62170457 792.92805608 735 798 C734.35724121 798.49435547 733.71448242 798.98871094 733.05224609 799.49804688 C718.95768866 810.31164463 704.36818929 820.09156912 689 829 C688.34789551 829.38091797 687.69579102 829.76183594 687.02392578 830.15429688 C632.81351394 861.65582698 572.04617982 879.45394768 509.9375 886.3125 C509.20072021 886.39390228 508.46394043 886.47530457 507.70483398 886.55917358 C502.80760297 887.09150221 497.90710917 887.56843505 493 888 C491.81422363 888.1045752 490.62844727 888.20915039 489.40673828 888.31689453 C475.63042189 889.34629713 461.80697529 889.24584534 448 889.25 C447.32636791 889.25044186 446.65273582 889.25088371 445.95869064 889.25133896 C422.52804712 889.25937715 399.30209265 888.57005642 376 886 C375.22426636 885.91514343 374.44853271 885.83028687 373.64929199 885.74285889 C361.72621346 884.42416187 349.85888386 882.80239587 338 881 C336.79506897 880.81951111 336.79506897 880.81951111 335.5657959 880.63537598 C310.89621599 876.92739046 287.52249945 871.31155802 264 863 C263.31442017 862.75896545 262.62884033 862.51793091 261.92248535 862.26959229 C206.99839118 842.91391963 154.53117313 816.76531425 107 783 C105.93023926 782.24686523 105.93023926 782.24686523 104.83886719 781.47851562 C94.45894626 774.16262857 84.47192833 766.49134507 74.69238281 758.39257812 C72.44445467 756.54286922 70.16116617 754.73962447 67.875 752.9375 C50.94367745 739.39809516 35.30226609 724.4812845 20.00830078 709.13867188 C17.976738 707.10167579 15.93978164 705.07018049 13.90234375 703.0390625 C12.58040793 701.71646683 11.25878183 700.39356151 9.9375 699.0703125 C9.34259766 698.47743439 8.74769531 697.88455627 8.13476562 697.27371216 C3.89487154 693.01044069 -0.08030925 688.55783654 -4 684 C-4.97337475 682.882304 -5.94723225 681.76502796 -6.921875 680.6484375 C-13.32648039 673.25515677 -19.52714535 665.7371407 -25.48242188 657.97705078 C-26.53508503 656.6056759 -27.59132926 655.2370453 -28.65039062 653.87060547 C-44.58435446 633.27358769 -59.0015841 611.5622711 -72 589 C-72.40557129 588.30310059 -72.81114258 587.60620117 -73.22900391 586.88818359 C-87.14218328 562.89348379 -98.9984415 537.85672846 -109 512 C-109.65476318 510.31221436 -109.65476318 510.31221436 -110.32275391 508.59033203 C-128.93189192 460.02914214 -141.00382382 406.80606555 -141.203125 354.66015625 C-141.21013931 353.42745499 -141.21715363 352.19475372 -141.22438049 350.92469788 C-141.24178429 346.97061498 -141.24881404 343.01661304 -141.25 339.0625 C-141.25044186 338.38919395 -141.25088371 337.71588791 -141.25133896 337.02217865 C-141.25817078 317.17849319 -140.98336458 297.65998743 -138 278 C-137.83902832 276.83791016 -137.67805664 275.67582031 -137.51220703 274.47851562 C-131.80426222 233.48658918 -120.04472137 193.68984661 -103 156 C-102.55543457 155.01451172 -102.11086914 154.02902344 -101.65283203 153.01367188 C-88.25795775 123.59095204 -71.12860558 96.97475157 -52 71 C-51.14921875 69.84419434 -51.14921875 69.84419434 -50.28125 68.66503906 C-47.93363064 65.47767416 -45.58453356 62.29140951 -43.23266602 59.10717773 C-36.53487427 50.03278018 -29.944508 40.88130364 -23.36328125 31.72216797 C-15.69726574 21.0539332 -7.92330435 10.47874846 0 0 Z " fill="#C7C8C9" transform="translate(1895,566)"/>
</svg>
