<?xml version="1.0" encoding="UTF-8"?>
<svg version="1.1" xmlns="http://www.w3.org/2000/svg" width="538" height="538">
<path d="M0 0 C0 0.66 0 1.32 0 2 C-0.94278809 2.29543701 -1.88557617 2.59087402 -2.85693359 2.89526367 C-55.48494902 19.4420706 -111.55643086 38.10715164 -153 76 C-153.95261719 76.87011719 -154.90523437 77.74023438 -155.88671875 78.63671875 C-171.90178916 93.93703009 -184.52186733 114.45847675 -186 137 C-186.0515625 137.77988281 -186.103125 138.55976563 -186.15625 139.36328125 C-187.0823765 165.41058903 -174.19181035 189.50921029 -158 209 C-157.5265918 209.57492188 -157.05318359 210.14984375 -156.56542969 210.7421875 C-140.25053111 230.47083053 -121.08130166 247.06792044 -100.375 262.0625 C-73.97264168 281.29243877 -42.11109221 307.52981164 -34.40234375 341.03515625 C-32.05829986 358.30825637 -35.5935225 372.55181493 -45.96484375 386.67578125 C-60.07538701 404.71584288 -79.21908785 416.98182202 -99 428 C-99.69689941 428.39364746 -100.39379883 428.78729492 -101.11181641 429.19287109 C-137.57681156 449.66518181 -178.19609112 462.70990708 -218 475 C-218.6444104 475.2032489 -219.2888208 475.4064978 -219.95275879 475.61590576 C-221.85282287 476.21288736 -223.75839171 476.79225925 -225.6640625 477.37109375 C-226.76443848 477.70939209 -227.86481445 478.04769043 -228.99853516 478.39624023 C-235.60519033 479.72520219 -239.6331668 476.59781647 -244.97265625 473.0859375 C-266.84795497 458.01315103 -287.63464987 440.02215707 -304 419 C-305.01941 417.7212575 -306.03894997 416.4426186 -307.05859375 415.1640625 C-350.71654445 359.87309515 -369.77185253 287.96805178 -361.8125 218.1875 C-361.28150783 214.11161419 -360.66458898 210.05607591 -360 206 C-359.84966309 205.04544922 -359.69932617 204.09089844 -359.54443359 203.10742188 C-353.68223859 167.28898428 -339.20139855 132.08620501 -319 102 C-318.58298828 101.37641602 -318.16597656 100.75283203 -317.73632812 100.11035156 C-312.14571668 91.83781654 -305.98553614 84.13285446 -299.41430664 76.61889648 C-298.40795706 75.46697104 -297.4077812 74.30963948 -296.41186523 73.14868164 C-285.66812414 60.6949066 -273.99043528 48.98836881 -260.70654297 39.2578125 C-258.95360856 37.96580705 -257.22810434 36.64255472 -255.50390625 35.3125 C-184.99990586 -18.52674415 -82.70022832 -33.82817036 0 0 Z " fill="#C7C8C9" transform="translate(364,20)"/>
<path d="M0 0 C1.43100306 1.02597081 2.85127159 2.06704219 4.26171875 3.12109375 C5.38864136 3.9419043 5.38864136 3.9419043 6.53833008 4.77929688 C12.13779711 8.8832766 17.63163161 13.09413975 22.94921875 17.55859375 C23.46516602 17.98575684 23.98111328 18.41291992 24.51269531 18.85302734 C36.28096007 28.61017366 47.3502071 38.88729408 56.8515625 50.90625 C58.2288962 52.64779485 59.63727083 54.36531903 61.078125 56.0546875 C105.54688473 108.31940153 124.41580498 179.69615014 119.26171875 247.30859375 C115.19132686 294.01118586 98.96042811 339.23435627 71.94921875 377.55859375 C71.44003906 378.28256348 70.93085938 379.0065332 70.40625 379.75244141 C64.34548853 388.28074298 57.82541812 396.1738201 50.609375 403.74609375 C48.50940345 405.96632799 46.52571851 408.21092487 44.57421875 410.55859375 C35.33896022 421.18025913 24.20761239 430.18298233 12.94921875 438.55859375 C12.2958252 439.04714844 11.64243164 439.53570312 10.96923828 440.0390625 C0.44637294 447.84902122 -10.44704481 454.48556122 -22.05078125 460.55859375 C-23.05359131 461.09178223 -23.05359131 461.09178223 -24.07666016 461.63574219 C-86.99000597 494.97871969 -161.23606982 499.80431093 -229.05078125 479.55859375 C-233.7763298 478.04364423 -238.42974757 476.36856535 -243.05078125 474.55859375 C-243.05078125 473.89859375 -243.05078125 473.23859375 -243.05078125 472.55859375 C-242.11733887 472.25791992 -241.18389648 471.95724609 -240.22216797 471.64746094 C-211.84836023 462.47837571 -184.00902647 452.38864144 -157.05078125 439.55859375 C-156.17550781 439.14287109 -155.30023438 438.72714844 -154.3984375 438.29882812 C-116.03618158 419.93391838 -73.02068957 394.19800586 -58.046875 351.8671875 C-51.40916805 329.81958833 -53.42269881 309.15997804 -63.05078125 288.55859375 C-63.33550293 287.94661133 -63.62022461 287.33462891 -63.91357422 286.70410156 C-71.3202039 271.13748682 -82.06969314 257.8494455 -94.05078125 245.55859375 C-94.69740723 244.89150391 -95.3440332 244.22441406 -96.01025391 243.53710938 C-104.29852745 235.01812934 -112.60225978 226.79917091 -122.05078125 219.55859375 C-123.44486082 218.47244478 -124.83801028 217.38510146 -126.23046875 216.296875 C-131.49924817 212.18473928 -136.77858113 208.0862119 -142.06787109 204.00048828 C-148.86384817 198.7477025 -155.48938495 193.42982107 -161.81640625 187.609375 C-163.90245011 185.69473684 -166.02760171 183.84036417 -168.17578125 181.99609375 C-185.9093281 166.42172127 -204.18712721 144.33151807 -206.37109375 119.98828125 C-206.90986869 102.49605481 -200.25414346 89.55117751 -188.46875 77.015625 C-187.27185547 75.79939453 -187.27185547 75.79939453 -186.05078125 74.55859375 C-185.26316406 73.75808594 -184.47554687 72.95757812 -183.6640625 72.1328125 C-142.36651562 32.47957836 -77.14115576 14.94640555 -23.48828125 -0.31640625 C-21.73294067 -0.82651245 -21.73294067 -0.82651245 -19.94213867 -1.34692383 C-12.33306643 -3.43906366 -6.90633478 -4.46486432 0 0 Z " fill="#C7C8C9" transform="translate(416.05078125,46.44140625)"/>
</svg>
